<svg width="23" height="24" viewBox="0 0 23 24" fill="none" xmlns="http://www.w3.org/2000/svg">
<g clip-path="url(#clip0_1_222)">
<path d="M5.20761 8.25885H0.45813V23.5842H5.20761V8.25885Z" fill="white"/>
<path d="M2.8087 6.25884C4.36373 6.25884 5.6174 4.99378 5.6174 3.42752C5.6174 1.86125 4.36373 0.596191 2.8087 0.596191C1.25367 0.596191 0 1.86125 0 3.42752C0 4.99378 1.25367 6.25884 2.8087 6.25884Z" fill="white"/>
<path d="M12.7899 15.548C12.7899 13.3914 13.7784 12.1143 15.683 12.1143C17.4309 12.1143 18.2626 13.3432 18.2626 15.548V23.5962H22.988V13.8854C22.988 9.77692 20.6615 7.78897 17.4068 7.78897C14.152 7.78897 12.7899 10.3191 12.7899 10.3191V8.25885H8.23328V23.5842H12.7899V15.536V15.548Z" fill="white"/>
</g>
<defs>
<clipPath id="clip0_1_222">
<rect width="23" height="23" fill="white" transform="translate(0 0.596191)"/>
</clipPath>
</defs>
</svg>
