<svg width="18" height="25" viewBox="0 0 18 25" fill="none" xmlns="http://www.w3.org/2000/svg">
<g clip-path="url(#clip0_108_91)">
<path d="M0.468262 9.2205C0.499474 7.54948 1.14119 5.79565 2.44648 4.27487C3.49958 3.04867 4.83982 2.21582 6.43414 1.74675C7.48598 1.43739 8.56342 1.29957 9.6546 1.4161C13.146 1.78934 15.573 3.52957 16.9245 6.60129C17.3627 7.59798 17.5556 8.64792 17.53 9.72802C17.5013 10.9489 17.1648 12.0941 16.5287 13.1564C14.4856 16.57 12.4387 19.9819 10.3931 23.3937C10.2901 23.5653 10.1902 23.7392 10.0785 23.9054C9.56908 24.6619 8.36429 24.6897 7.85304 23.935C7.41919 23.2949 7.03091 22.6265 6.63389 21.9646C5.0889 19.3904 3.54515 16.8161 2.00951 14.2371C1.58565 13.5255 1.1593 12.8139 0.890873 12.0302C0.609965 11.2098 0.46951 10.3686 0.46951 9.21932L0.468262 9.2205Z" stroke="white" stroke-linecap="round" stroke-linejoin="round"/>
<path d="M9.0265 14.0531C11.6833 14.0366 13.8762 11.9923 13.8444 9.43758C13.8119 6.85445 11.6477 4.86342 8.9878 4.87702C6.29045 4.89122 4.11684 6.98576 4.15679 9.48135C4.19862 12.1183 6.4359 14.0591 9.02712 14.0531H9.0265Z" stroke="white" stroke-linecap="round" stroke-linejoin="round"/>
</g>
<defs>
<clipPath id="clip0_108_91">
<rect width="18" height="24" fill="white" transform="translate(0 0.931641)"/>
</clipPath>
</defs>
</svg>
