<svg width="27" height="24" viewBox="0 0 27 24" fill="none" xmlns="http://www.w3.org/2000/svg">
<g clip-path="url(#clip0_108_87)">
<path d="M13.4996 4.25145C16.2363 4.25339 17.8954 4.97091 18.4731 5.1254C19.0502 5.28054 19.253 5.51842 19.2478 5.98707C19.2432 6.45507 19.2052 8.01616 19.1149 8.64447C19.0247 9.27343 19.3498 9.44215 19.834 9.63348C20.3181 9.82482 23.1399 10.6012 23.7169 10.7557C24.2939 10.9108 24.6485 11.0465 24.8965 10.9703C25.1451 10.8933 25.8576 10.1047 26.3568 8.89205C26.856 7.67873 26.0297 5.35553 25.3577 4.64512C24.6858 3.93471 24.2364 3.06852 19.6822 1.40918C17.6272 0.660633 15.4617 0.452489 13.5336 0.488688H13.4662C11.5388 0.451842 9.3726 0.659987 7.31762 1.40918C2.76343 3.06852 2.31396 3.93407 1.64205 4.64512C0.970142 5.35617 0.144486 7.67873 0.643675 8.89205C1.14286 10.1047 1.85533 10.8933 2.10395 10.9703C2.35191 11.0465 2.70716 10.9101 3.28355 10.7557C3.86059 10.6005 6.68235 9.82482 7.16649 9.63348C7.65063 9.44215 7.97579 9.27343 7.8855 8.64447C7.79522 8.01616 7.75727 6.45507 7.75269 5.98707C7.74746 5.51842 7.95027 5.28054 8.52732 5.1254C9.10501 4.97091 10.7642 4.25404 13.5009 4.25145H13.4996Z" stroke="white" stroke-linecap="round" stroke-linejoin="round"/>
<path d="M22.6172 12.3904L24.1795 19.6257C24.646 21.6147 23.117 23.5152 21.0503 23.5152H5.84762C3.78086 23.5152 2.25255 21.6147 2.71837 19.6257L4.2807 12.3904" stroke="white" stroke-linecap="round" stroke-linejoin="round"/>
<path d="M18.5271 15.7762C18.9823 13.0054 17.0779 10.3946 14.2735 9.94479C11.4691 9.49502 8.82659 11.3766 8.37137 14.1475C7.91615 16.9183 9.82055 19.5292 12.625 19.9789C15.4294 20.4287 18.0719 18.5471 18.5271 15.7762Z" stroke="white" stroke-linecap="round" stroke-linejoin="round"/>
</g>
<defs>
<clipPath id="clip0_108_87">
<rect width="27" height="24" fill="white"/>
</clipPath>
</defs>
</svg>
